<svg xmlns="http://www.w3.org/2000/svg" width="1200" height="630" viewBox="0 0 1200 630" role="img" aria-labelledby="title desc">
  <title id="title">Clico | Revenue Flow OS</title>
  <desc id="desc">Visual brand image for Clico revenue flow operating system.</desc>
  <defs>
    <linearGradient id="bg" x1="0" x2="1" y1="0" y2="1">
      <stop stop-color="#0f172a" offset="0%"/>
      <stop stop-color="#0b1022" offset="100%"/>
    </linearGradient>
    <linearGradient id="accent" x1="0" x2="1" y1="0" y2="0">
      <stop stop-color="#22d3ee" offset="0%"/>
      <stop stop-color="#f97316" offset="100%"/>
    </linearGradient>
    <radialGradient id="glow" cx="30%" cy="30%" r="50%">
      <stop stop-color="rgba(34,211,238,0.5)" offset="0%"/>
      <stop stop-color="rgba(34,211,238,0)" offset="80%"/>
    </radialGradient>
  </defs>
  <rect width="1200" height="630" fill="url(#bg)"/>
  <circle cx="260" cy="140" r="220" fill="url(#glow)"/>
  <circle cx="980" cy="120" r="200" fill="rgba(249,115,22,0.15)"/>
  <rect x="140" y="160" width="920" height="340" rx="28" fill="rgba(255,255,255,0.05)" stroke="rgba(255,255,255,0.08)" stroke-width="2"/>
  <rect x="170" y="210" width="520" height="8" rx="4" fill="rgba(255,255,255,0.08)"/>
  <rect x="170" y="230" width="360" height="8" rx="4" fill="rgba(255,255,255,0.08)"/>
  <rect x="170" y="260" width="420" height="16" rx="8" fill="url(#accent)"/>
  <rect x="170" y="300" width="260" height="14" rx="7" fill="rgba(255,255,255,0.18)"/>
  <rect x="170" y="320" width="340" height="12" rx="6" fill="rgba(255,255,255,0.12)"/>
  <rect x="170" y="360" width="320" height="70" rx="18" fill="rgba(255,255,255,0.06)" stroke="rgba(255,255,255,0.08)" stroke-width="2"/>
  <circle cx="210" cy="395" r="12" fill="#22d3ee"/>
  <rect x="230" y="386" width="180" height="9" rx="4.5" fill="rgba(255,255,255,0.75)"/>
  <rect x="230" y="402" width="150" height="8" rx="4" fill="rgba(255,255,255,0.45)"/>
  <rect x="520" y="360" width="320" height="70" rx="18" fill="rgba(255,255,255,0.06)" stroke="rgba(255,255,255,0.08)" stroke-width="2"/>
  <circle cx="560" cy="395" r="12" fill="#f97316"/>
  <rect x="580" y="386" width="180" height="9" rx="4.5" fill="rgba(255,255,255,0.75)"/>
  <rect x="580" y="402" width="150" height="8" rx="4" fill="rgba(255,255,255,0.45)"/>
  <rect x="170" y="452" width="680" height="10" rx="5" fill="rgba(255,255,255,0.08)"/>
  <text x="200" y="280" font-size="48" font-family="Inter, -apple-system, system-ui, sans-serif" fill="#e2e8f0" font-weight="700">Clico | Revenue Flow OS</text>
  <text x="200" y="330" font-size="22" font-family="Inter, -apple-system, system-ui, sans-serif" fill="#cbd5e1" font-weight="500">Build onboarding, checkout, and support flows without breaking your stack.</text>
  <rect x="860" y="220" width="180" height="24" rx="12" fill="rgba(34,211,238,0.15)" stroke="rgba(34,211,238,0.35)" stroke-width="2"/>
  <text x="880" y="239" font-size="14" font-family="Inter, -apple-system, system-ui, sans-serif" fill="#a5f3fc" font-weight="600">Live playbooks</text>
  <rect x="860" y="260" width="180" height="24" rx="12" fill="rgba(249,115,22,0.12)" stroke="rgba(249,115,22,0.35)" stroke-width="2"/>
  <text x="880" y="279" font-size="14" font-family="Inter, -apple-system, system-ui, sans-serif" fill="#ffedd5" font-weight="600">Signal lab</text>
  <rect x="860" y="300" width="180" height="24" rx="12" fill="rgba(74,222,128,0.12)" stroke="rgba(74,222,128,0.35)" stroke-width="2"/>
  <text x="880" y="319" font-size="14" font-family="Inter, -apple-system, system-ui, sans-serif" fill="#bbf7d0" font-weight="600">Launch studio</text>
  <text x="880" y="366" font-size="13" font-family="Inter, -apple-system, system-ui, sans-serif" fill="#cbd5e1" font-weight="500">Conversion lift</text>
  <text x="880" y="388" font-size="34" font-family="Inter, -apple-system, system-ui, sans-serif" fill="#e2e8f0" font-weight="700">18%</text>
  <text x="880" y="420" font-size="13" font-family="Inter, -apple-system, system-ui, sans-serif" fill="#cbd5e1" font-weight="500">Markets covered</text>
  <text x="880" y="442" font-size="34" font-family="Inter, -apple-system, system-ui, sans-serif" fill="#e2e8f0" font-weight="700">32</text>
  <rect x="880" y="470" width="120" height="40" rx="20" fill="url(#accent)"/>
  <text x="900" y="497" font-size="16" font-family="Inter, -apple-system, system-ui, sans-serif" fill="#0f172a" font-weight="700">Book a session</text>
</svg>
